<svg width="359" height="97" viewBox="0 0 359 97" fill="none" xmlns="http://www.w3.org/2000/svg">
<path d="M244 96V1H358V96H244Z" fill="#BA9279" stroke="black"/>
<path d="M293.5 22H265.5V70H293.5V22Z" fill="#7F524C" stroke="black"/>
<path d="M278.5 25H268.5V66H278.5V25Z" fill="#BAC5E1"/>
<path d="M290.5 25H280.5V66H290.5V25Z" fill="#BAC5E1"/>
<path d="M278.5 25H268.5V66H278.5V25Z" stroke="black"/>
<path d="M290.5 25H280.5V66H290.5V25Z" stroke="black"/>
<path d="M340.5 22H312.5V70H340.5V22Z" fill="#7F524C" stroke="black"/>
<path d="M325.5 25H315.5V66H325.5V25Z" fill="#BAC5E1"/>
<path d="M337.5 25H327.5V66H337.5V25Z" fill="#BAC5E1"/>
<path d="M325.5 25H315.5V66H325.5V25Z" stroke="black"/>
<path d="M337.5 25H327.5V66H337.5V25Z" stroke="black"/>
<path d="M243.5 96V1H1V96H243.5Z" fill="#CDB1A0" stroke="black"/>
<path d="M180 22H152V70H180V22Z" fill="#7F524C" stroke="black"/>
<path d="M165 25H155V66H165V25Z" fill="#BAC5E1"/>
<path d="M177 25H167V66H177V25Z" fill="#BAC5E1"/>
<path d="M165 25H155V66H165V25Z" stroke="black"/>
<path d="M177 25H167V66H177V25Z" stroke="black"/>
<path d="M86 22H58V70H86V22Z" fill="#7F524C" stroke="black"/>
<path d="M71 25H61V66H71V25Z" fill="#BAC5E1"/>
<path d="M83 25H73V66H83V25Z" fill="#BAC5E1"/>
<path d="M71 25H61V66H71V25Z" stroke="black"/>
<path d="M83 25H73V66H83V25Z" stroke="black"/>
<path d="M39 22H11V70H39V22Z" fill="#7F524C" stroke="black"/>
<path d="M24 25H14V66H24V25Z" fill="#BAC5E1"/>
<path d="M36 25H26V66H36V25Z" fill="#BAC5E1"/>
<path d="M24 25H14V66H24V25Z" stroke="black"/>
<path d="M36 25H26V66H36V25Z" stroke="black"/>
<path d="M227 22H199V70H227V22Z" fill="#7F524C" stroke="black"/>
<path d="M212 25H202V66H212V25Z" fill="#BAC5E1"/>
<path d="M224 25H214V66H224V25Z" fill="#BAC5E1"/>
<path d="M212 25H202V66H212V25Z" stroke="black"/>
<path d="M224 25H214V66H224V25Z" stroke="black"/>
<path d="M143 22H94V95.5H143V22Z" fill="#564840" stroke="black"/>
<path d="M115.5 29H101.5V68H115.5V29Z" fill="#7A8DCD" stroke="black"/>
<path d="M136.5 29H122.5V68H136.5V29Z" fill="#7A8DCD" stroke="black"/>
<path d="M130.748 71.2652L124.468 70.0878C124.175 70.0328 123.874 70.126 123.663 70.3368C123.159 70.8407 123.411 71.6951 124.111 71.8295C126.057 72.2034 129.029 72.7029 132 73C135.086 73.3086 134.402 72.6451 133.164 72.0196C132.407 71.6376 131.581 71.4214 130.748 71.2652Z" fill="#D9D9D9" stroke="black"/>
<path d="M106.961 71.2652L113.24 70.0878C113.533 70.0328 113.835 70.126 114.045 70.3368C114.549 70.8407 114.298 71.6951 113.598 71.8295C111.651 72.2034 108.68 72.7029 105.708 73C102.623 73.3086 103.306 72.6451 104.545 72.0196C105.301 71.6376 106.128 71.4214 106.961 71.2652Z" fill="#D9D9D9" stroke="black"/>
</svg>
