<svg width="358" height="48" viewBox="0 0 358 48" fill="none" xmlns="http://www.w3.org/2000/svg">
<path d="M357.5 41.5V47H243.5V41.5L299.5 13.5L357.5 41.5Z" fill="#8E5752" stroke="black"/>
<path d="M243.5 41.5L299.5 13.5H52.5L1 41.5H243.5Z" fill="#B57762" stroke="black"/>
<path d="M243.5 47V41.5H1V47H243.5Z" fill="#C98C79" stroke="black"/>
<path d="M169 20.5V35.5H131V20.5L150 1.5L169 20.5Z" fill="#D4B598" stroke="black"/>
<path d="M187.4 20.5H169.1C169.045 20.5 169 20.5448 169 20.6V35.3401C169 35.414 169.077 35.4624 169.144 35.4301L187.444 26.5274C187.478 26.5106 187.5 26.4757 187.5 26.4374V20.6C187.5 20.5448 187.455 20.5 187.4 20.5Z" fill="#B89378" stroke="black"/>
<path d="M168.971 20.4707L150.171 1.67071C150.108 1.60771 150.152 1.5 150.241 1.5H168.958C168.985 1.5 169.011 1.5109 169.029 1.53024L187.335 20.3302C187.396 20.3936 187.352 20.5 187.263 20.5H169.041C169.015 20.5 168.989 20.4895 168.971 20.4707Z" fill="#90554D" stroke="black"/>
<path d="M168.759 20.5H131.241C131.152 20.5 131.108 20.3923 131.171 20.3293L149.929 1.57071C149.968 1.53166 150.032 1.53166 150.071 1.57071L168.829 20.3293C168.892 20.3923 168.848 20.5 168.759 20.5Z" fill="#B89378" stroke="black"/>
<path d="M153.088 33.0648H147C145.895 33.0648 145 32.1694 145 31.0648V24C145 22.8954 145.895 22 147 22H153.088C154.193 22 155.088 22.8954 155.088 24V31.0648C155.088 32.1694 154.193 33.0648 153.088 33.0648Z" fill="#945955" stroke="black"/>
<path d="M151.136 24.2781H148.953C147.848 24.2781 146.953 25.1735 146.953 26.2781V28.7866C146.953 29.8912 147.848 30.7866 148.953 30.7866H151.136C152.24 30.7866 153.136 29.8912 153.136 28.7866V26.2781C153.136 25.1735 152.24 24.2781 151.136 24.2781Z" fill="#BAC5E1" stroke="black"/>
</svg>
