<svg width="358" height="97" viewBox="0 0 358 97" fill="none" xmlns="http://www.w3.org/2000/svg">
<path d="M243.5 96V1H357.5V96H243.5Z" fill="#BA9279" stroke="black"/>
<path d="M293 22H265V70H293V22Z" fill="#7F524C" stroke="black"/>
<path d="M278 25H268V66H278V25Z" fill="#BAC5E1"/>
<path d="M290 25H280V66H290V25Z" fill="#BAC5E1"/>
<path d="M278 25H268V66H278V25Z" stroke="black"/>
<path d="M290 25H280V66H290V25Z" stroke="black"/>
<path d="M340 22H312V70H340V22Z" fill="#7F524C" stroke="black"/>
<path d="M325 25H315V66H325V25Z" fill="#BAC5E1"/>
<path d="M337 25H327V66H337V25Z" fill="#BAC5E1"/>
<path d="M325 25H315V66H325V25Z" stroke="black"/>
<path d="M337 25H327V66H337V25Z" stroke="black"/>
<path d="M243.5 96V1H1V96H243.5Z" fill="#CDB1A0" stroke="black"/>
<path d="M180 22H152V70H180V22Z" fill="#7F524C" stroke="black"/>
<path d="M165 25H155V66H165V25Z" fill="#BAC5E1"/>
<path d="M177 25H167V66H177V25Z" fill="#BAC5E1"/>
<path d="M165 25H155V66H165V25Z" stroke="black"/>
<path d="M177 25H167V66H177V25Z" stroke="black"/>
<path d="M133 22H105V70H133V22Z" fill="#7F524C" stroke="black"/>
<path d="M118 25H108V66H118V25Z" fill="#BAC5E1"/>
<path d="M130 25H120V66H130V25Z" fill="#BAC5E1"/>
<path d="M118 25H108V66H118V25Z" stroke="black"/>
<path d="M130 25H120V66H130V25Z" stroke="black"/>
<path d="M86 22H58V70H86V22Z" fill="#7F524C" stroke="black"/>
<path d="M71 25H61V66H71V25Z" fill="#BAC5E1"/>
<path d="M83 25H73V66H83V25Z" fill="#BAC5E1"/>
<path d="M71 25H61V66H71V25Z" stroke="black"/>
<path d="M83 25H73V66H83V25Z" stroke="black"/>
<path d="M39 22H11V70H39V22Z" fill="#7F524C" stroke="black"/>
<path d="M24 25H14V66H24V25Z" fill="#BAC5E1"/>
<path d="M36 25H26V66H36V25Z" fill="#BAC5E1"/>
<path d="M24 25H14V66H24V25Z" stroke="black"/>
<path d="M36 25H26V66H36V25Z" stroke="black"/>
<path d="M227 22H199V70H227V22Z" fill="#7F524C" stroke="black"/>
<path d="M212 25H202V66H212V25Z" fill="#BAC5E1"/>
<path d="M224 25H214V66H224V25Z" fill="#BAC5E1"/>
<path d="M212 25H202V66H212V25Z" stroke="black"/>
<path d="M224 25H214V66H224V25Z" stroke="black"/>
</svg>
